<svg xmlns="http://www.w3.org/2000/svg" viewBox="0 0 160 160" width="160" height="160">
  <defs>
    <linearGradient id="g" x1="0" y1="0" x2="1" y2="1">
      <stop offset="0" stop-color="#14b8a6"/>
      <stop offset="1" stop-color="#06b6d4"/>
    </linearGradient>
  </defs>
  <rect width="160" height="160" rx="36" fill="#0f172a"/>
  <g fill="none" stroke="url(#g)" stroke-width="7" stroke-linecap="round">
    <path d="M80 118c-14 0-22-9-22-22 0-16 12-24 22-36 10 12 22 20 22 36 0 13-8 22-22 22Z"/>
    <path d="M80 118c-14 0-22-9-22-22 0-16 12-24 22-36 10 12 22 20 22 36 0 13-8 22-22 22Z" transform="translate(-18 0) scale(0.72 1) translate(18 0)"/>
  </g>
  <circle cx="80" cy="96" r="7" fill="#14b8a6"/>
  <circle cx="44" cy="98" r="5" fill="#2dd4bf" opacity="0.85"/>
  <circle cx="116" cy="98" r="5" fill="#2dd4bf" opacity="0.85"/>
  <text x="80" y="34" text-anchor="middle" font-family="Inter, system-ui, sans-serif" font-size="13" font-weight="700" fill="#e2e8f0">NeuroOmics</text>
  <text x="80" y="49" text-anchor="middle" font-family="Inter, system-ui, sans-serif" font-size="13" font-weight="700" fill="#2dd4bf">-AD</text>
</svg>
